<?xml version="1.0" standalone="no"?>
<!DOCTYPE svg PUBLIC "-//W3C//DTD SVG 20010904//EN"
 "http://www.w3.org/TR/2001/REC-SVG-20010904/DTD/svg10.dtd">
<svg version="1.0" xmlns="http://www.w3.org/2000/svg"
 width="6987.000000pt" height="6987.000000pt" viewBox="0 0 6987.000000 6987.000000"
 preserveAspectRatio="xMidYMid meet">
<metadata>
Created by potrace 1.11, written by Peter Selinger 2001-2013
</metadata>
<g transform="translate(0.000000,6987.000000) scale(0.100000,-0.100000)"
fill="#000000" stroke="none">
<path d="M49080 49023 c-384 -57 -589 -133 -860 -317 -41 -28 -82 -56 -90 -63
-82 -66 -115 -95 -180 -157 -434 -418 -632 -955 -586 -1591 23 -325 135 -647
331 -945 16 -25 33 -49 37 -55 5 -5 28 -35 51 -66 36 -48 256 -322 309 -384 9
-11 89 -109 177 -218 88 -109 174 -215 190 -235 17 -20 55 -68 86 -107 31 -38
64 -79 74 -90 9 -11 84 -103 166 -205 83 -102 157 -194 167 -205 9 -11 86
-105 170 -210 124 -153 627 -774 688 -849 8 -10 20 -23 25 -30 6 -6 66 -81
135 -166 107 -133 425 -525 803 -990 56 -69 116 -143 132 -164 17 -22 37 -46
46 -55 8 -9 31 -36 49 -61 19 -25 39 -50 45 -56 5 -6 24 -29 40 -50 17 -21 53
-65 80 -99 28 -33 127 -154 220 -270 93 -115 177 -219 187 -230 9 -11 77 -94
150 -185 74 -91 183 -226 243 -300 60 -74 180 -223 267 -330 87 -107 163 -201
169 -208 20 -24 542 -668 573 -706 17 -21 54 -66 81 -100 28 -34 98 -119 155
-191 123 -153 132 -164 145 -179 6 -6 41 -49 78 -96 38 -47 76 -94 85 -105 9
-11 182 -224 384 -473 l368 -454 1 -2396 c0 -1319 2 -2413 4 -2432 1 -19 6
-66 9 -103 4 -38 11 -88 16 -110 5 -23 12 -58 15 -77 7 -40 34 -143 47 -180 3
-8 16 -44 28 -80 35 -101 127 -283 197 -388 288 -431 707 -737 1158 -846 101
-25 130 -30 220 -41 28 -3 70 -8 95 -11 54 -7 292 -6 341 0 19 3 61 8 94 11
33 4 101 16 150 27 50 10 99 21 110 23 54 12 212 73 313 122 264 126 519 333
713 578 44 55 84 105 89 112 10 12 65 101 92 148 32 55 104 209 122 260 10 28
22 59 27 70 21 52 68 257 85 375 3 25 7 1139 9 2477 l3 2432 104 128 c213 262
431 529 451 553 12 14 61 75 110 135 49 61 104 128 122 150 41 48 699 856 909
1115 83 102 153 187 156 190 3 3 30 37 61 75 31 39 171 210 310 381 140 171
266 327 281 345 14 19 40 50 56 69 16 19 163 199 327 400 332 407 333 409 437
535 40 50 132 162 203 250 71 88 132 162 135 165 3 3 21 25 40 50 19 25 37 47
40 50 3 3 44 52 90 110 109 134 108 133 172 210 30 36 100 121 155 190 56 69
167 206 248 305 81 99 161 198 178 219 18 22 37 44 42 50 6 6 46 56 90 111 44
55 82 102 85 105 3 3 35 41 70 85 36 44 72 89 82 100 9 11 130 160 268 330
139 171 273 335 299 366 25 30 60 72 76 94 17 21 35 43 40 49 6 6 49 58 95
116 47 57 93 114 102 125 9 11 62 76 118 145 56 69 109 134 119 145 24 29 363
445 440 540 130 162 286 428 327 560 2 6 17 49 33 97 17 47 32 97 35 110 3 12
14 66 25 118 11 52 24 136 29 185 9 87 8 409 -1 450 -3 12 -8 48 -12 80 -20
172 -103 433 -192 604 -217 413 -611 763 -1045 925 -98 36 -259 80 -333 90
-22 3 -69 10 -105 15 -70 10 -453 7 -510 -4 -19 -4 -46 -8 -60 -9 -14 -1 -30
-4 -35 -7 -6 -3 -25 -6 -44 -8 -48 -4 -268 -65 -349 -97 -99 -39 -253 -117
-335 -170 -211 -136 -359 -278 -607 -584 -144 -177 -291 -357 -388 -475 -10
-11 -64 -79 -122 -150 -57 -72 -107 -132 -110 -135 -3 -3 -23 -27 -45 -55 -21
-27 -42 -52 -45 -55 -3 -3 -52 -63 -110 -135 -58 -71 -112 -139 -122 -150 -9
-11 -91 -112 -183 -225 -91 -113 -183 -225 -204 -250 -31 -37 -164 -201 -435
-535 -23 -27 -54 -66 -71 -86 -41 -49 -58 -69 -150 -184 -44 -55 -90 -111
-101 -125 -48 -56 -495 -605 -534 -654 -14 -18 -43 -54 -65 -81 -78 -94 -116
-140 -123 -150 -17 -22 -147 -180 -152 -185 -3 -3 -50 -60 -103 -127 -54 -67
-103 -128 -110 -135 -7 -7 -28 -33 -47 -58 -19 -25 -39 -50 -45 -56 -5 -6 -64
-78 -130 -159 -66 -82 -163 -200 -215 -264 -53 -64 -154 -188 -225 -276 -72
-88 -138 -169 -147 -180 -9 -11 -92 -112 -183 -225 -92 -113 -177 -216 -189
-230 -11 -14 -48 -59 -81 -100 -33 -41 -67 -84 -77 -95 -15 -18 -157 -192
-245 -301 -17 -21 -43 -52 -57 -69 -13 -16 -99 -122 -191 -235 -280 -344 -282
-347 -287 -340 -3 3 -52 64 -109 135 -160 198 -452 558 -471 580 -9 11 -30 36
-45 56 -15 20 -44 56 -64 80 -20 24 -146 179 -279 344 -134 165 -255 314 -269
331 -14 16 -37 45 -51 64 -14 18 -30 38 -35 44 -6 6 -78 94 -160 196 -82 102
-152 187 -155 190 -3 3 -21 25 -40 50 -19 25 -43 54 -52 65 -9 11 -80 99 -158
195 -78 96 -150 184 -159 195 -9 12 -84 104 -166 205 -192 238 -229 284 -236
290 -3 3 -52 64 -109 135 -57 72 -127 157 -154 191 -28 34 -65 79 -82 100 -25
31 -332 410 -473 584 -16 19 -207 256 -426 525 -218 270 -404 499 -413 510
-10 11 -64 79 -122 150 -57 72 -107 132 -110 135 -3 3 -32 39 -64 80 -33 41
-68 84 -77 95 -16 18 -264 325 -327 404 -15 18 -35 43 -45 55 -10 11 -26 30
-35 41 -9 11 -71 88 -137 170 -65 83 -122 152 -125 155 -3 3 -44 52 -90 110
-140 174 -224 272 -295 340 -37 36 -77 74 -89 85 -11 12 -57 48 -101 82 -239
182 -488 295 -790 359 -11 2 -49 9 -85 14 -36 6 -76 13 -90 16 -30 7 -444 13
-480 7z"/>
<path d="M36117 48964 c-1 -1 -65 -5 -142 -8 -77 -4 -153 -9 -170 -11 -16 -2
-61 -6 -100 -10 -38 -3 -77 -8 -85 -10 -8 -2 -40 -6 -71 -10 -31 -3 -66 -7
-77 -10 -11 -2 -37 -6 -58 -9 -741 -116 -1541 -467 -2151 -943 -172 -134 -271
-222 -432 -384 -166 -165 -290 -308 -454 -519 -256 -330 -526 -815 -697 -1251
-61 -154 -155 -451 -175 -549 -2 -8 -10 -42 -19 -75 -8 -33 -18 -76 -21 -95
-3 -19 -10 -54 -16 -78 -5 -23 -12 -59 -15 -80 -3 -20 -7 -44 -9 -52 -2 -8 -7
-37 -10 -65 -4 -27 -8 -59 -10 -71 -2 -11 -6 -52 -10 -90 -4 -38 -9 -77 -11
-87 -25 -137 -24 -781 1 -972 3 -16 7 -57 10 -90 3 -33 8 -69 10 -80 2 -11 7
-42 10 -70 7 -62 21 -145 45 -260 6 -27 12 -59 14 -70 2 -11 18 -74 35 -140
69 -272 159 -526 282 -790 18 -38 33 -72 34 -75 4 -16 107 -211 190 -358 78
-138 391 -594 435 -632 3 -3 25 -30 50 -60 25 -30 52 -62 60 -70 8 -9 30 -34
48 -55 18 -22 71 -79 118 -127 l85 -87 -101 -98 c-163 -157 -270 -268 -385
-398 -33 -38 -65 -73 -70 -79 -29 -29 -181 -224 -256 -326 -214 -292 -430
-667 -559 -970 -18 -41 -38 -88 -45 -105 -12 -28 -32 -79 -100 -257 -25 -67
-93 -278 -100 -311 -2 -9 -6 -20 -9 -25 -5 -9 -85 -316 -92 -357 -3 -16 -10
-50 -15 -75 -15 -67 -47 -248 -54 -305 -3 -27 -8 -61 -10 -75 -4 -24 -10 -67
-20 -159 -27 -258 -28 -818 -1 -1076 2 -16 6 -59 10 -95 4 -36 9 -76 11 -90 2
-14 7 -45 10 -70 9 -69 25 -161 41 -247 3 -16 7 -37 9 -48 5 -34 46 -216 67
-295 10 -41 21 -82 23 -91 9 -40 80 -272 116 -375 100 -291 267 -662 409 -909
34 -60 68 -119 74 -130 70 -122 373 -556 416 -595 3 -3 25 -30 50 -60 25 -30
59 -71 76 -90 17 -19 53 -60 80 -90 76 -85 260 -267 354 -350 47 -41 87 -77
90 -80 15 -15 126 -104 200 -162 436 -336 985 -630 1490 -799 169 -56 426
-127 540 -149 200 -39 312 -59 360 -65 30 -3 66 -8 80 -10 23 -3 69 -9 165
-19 45 -5 191 -17 275 -22 71 -4 543 -4 595 0 22 2 92 7 155 11 63 4 122 8
130 10 8 2 47 6 85 10 39 4 77 9 86 10 9 2 40 6 70 10 88 10 328 55 414 77 44
11 88 21 97 23 183 37 589 176 844 290 68 31 397 195 454 227 184 103 486 298
605 390 320 248 359 284 497 449 20 24 46 55 58 69 12 14 38 45 58 69 46 55
278 328 392 461 8 10 33 39 55 66 22 26 109 129 194 228 84 100 165 196 178
213 l25 33 67 -58 c36 -31 68 -59 71 -62 3 -3 39 -34 80 -70 41 -36 80 -69 86
-75 6 -5 38 -33 70 -61 33 -28 170 -147 305 -265 135 -118 271 -236 304 -264
32 -27 71 -62 88 -78 16 -15 52 -46 80 -70 27 -23 55 -46 61 -52 6 -5 45 -39
86 -75 41 -36 91 -79 110 -96 19 -17 109 -96 200 -175 91 -78 167 -145 170
-149 3 -3 34 -30 70 -60 36 -30 67 -57 70 -60 6 -7 213 -187 304 -265 33 -27
71 -61 86 -75 15 -14 40 -36 56 -50 104 -89 257 -223 281 -246 110 -102 297
-218 454 -281 80 -32 231 -78 289 -87 19 -3 44 -8 56 -10 104 -21 438 -29 559
-12 452 61 813 272 1114 650 157 198 274 426 317 618 2 10 6 28 9 41 6 25 23
110 30 147 21 120 21 380 -1 530 -3 25 -8 54 -9 65 -16 115 -91 348 -153 470
-126 251 -248 388 -677 755 -143 122 -276 236 -295 254 -19 17 -62 54 -95 81
-33 28 -62 53 -65 56 -3 3 -104 91 -225 195 -121 104 -231 198 -245 210 -14
12 -63 55 -110 95 -159 136 -515 443 -520 449 -3 3 -34 30 -70 60 -36 30 -70
59 -76 65 -6 5 -37 33 -69 60 -33 28 -161 138 -285 245 -124 107 -238 205
-253 216 -15 12 -27 25 -27 29 0 6 97 122 130 155 8 8 56 62 105 120 50 58 93
107 96 110 6 5 98 110 228 259 31 36 63 72 71 81 13 14 99 112 171 195 14 16
50 57 79 90 29 33 65 74 79 90 27 31 238 271 256 291 234 261 339 403 429 579
84 167 147 356 171 520 15 108 18 146 19 284 6 534 -195 951 -634 1316 -136
112 -328 231 -445 275 -11 4 -31 12 -45 18 -30 13 -123 42 -130 41 -3 0 -18 4
-33 10 -26 10 -102 27 -207 46 -58 11 -400 14 -470 5 -176 -24 -295 -56 -442
-118 -238 -102 -418 -240 -638 -491 -36 -40 -74 -83 -85 -95 -69 -77 -263
-293 -329 -367 -69 -77 -173 -193 -197 -220 -13 -14 -55 -61 -94 -104 -38 -44
-95 -106 -125 -140 -30 -33 -68 -76 -86 -95 -167 -187 -231 -259 -249 -279
-11 -13 -25 -29 -31 -35 -11 -12 -215 -239 -220 -245 -4 -4 -44 29 -120 98
-28 25 -79 71 -113 101 -35 30 -75 66 -90 80 -38 35 -93 84 -186 165 -44 39
-87 77 -95 85 -8 8 -51 47 -95 85 -44 39 -82 72 -85 75 -3 3 -43 39 -90 80
-46 41 -105 94 -130 117 -25 23 -56 51 -70 63 -14 12 -56 49 -94 83 -38 34
-78 70 -90 80 -12 10 -52 46 -90 80 -38 34 -77 69 -86 77 -10 8 -36 32 -60 54
l-43 38 49 47 c113 108 229 208 533 459 78 65 180 174 350 377 276 330 558
794 724 1195 129 312 239 695 281 980 21 145 24 165 31 235 3 33 8 74 10 90 2
17 7 71 10 120 3 50 8 115 10 145 6 76 6 447 1 545 -7 110 -17 245 -21 275 -2
14 -7 50 -10 80 -3 30 -8 66 -10 80 -2 14 -7 45 -10 70 -21 159 -75 411 -132
610 -19 69 -36 132 -38 140 -2 8 -22 69 -45 135 -115 331 -273 674 -439 950
-92 154 -121 199 -226 350 -267 384 -719 841 -1137 1153 -106 79 -324 223
-403 267 -27 15 -54 31 -60 35 -24 20 -341 172 -445 215 -63 26 -124 51 -135
55 -129 56 -523 166 -730 205 -43 8 -204 34 -247 40 -89 12 -107 14 -178 20
-41 4 -86 8 -100 11 -54 8 -575 24 -583 18z m356 -3478 c15 -3 37 -8 50 -10
172 -30 430 -143 548 -240 14 -11 41 -32 59 -46 58 -43 204 -194 262 -271 188
-253 279 -535 273 -851 -3 -141 -6 -168 -26 -281 -33 -188 -143 -417 -276
-574 -232 -275 -514 -442 -863 -508 -44 -9 -183 -19 -250 -19 -74 0 -250 13
-259 18 -4 3 -26 7 -51 11 -64 10 -194 52 -279 91 -153 70 -330 212 -448 359
-103 128 -215 316 -262 440 -12 33 -26 67 -31 75 -8 17 -23 78 -19 82 1 2 -3
12 -9 24 -6 11 -14 43 -18 70 -3 27 -10 71 -14 98 -12 76 -2 324 15 386 2 8 7
29 10 45 9 55 13 71 29 121 45 145 99 255 190 389 73 107 231 270 339 349 172
127 399 218 599 242 29 3 55 8 57 10 6 6 342 -3 374 -10z m-654 -7203 c13 -9
36 -28 50 -42 14 -15 62 -58 106 -96 44 -39 82 -72 85 -75 6 -6 112 -101 365
-325 165 -146 257 -228 275 -245 9 -8 70 -62 135 -120 66 -58 122 -107 125
-110 9 -9 193 -173 279 -248 14 -13 42 -38 61 -55 19 -18 71 -63 115 -102 80
-71 135 -119 185 -165 15 -14 58 -52 96 -85 37 -33 75 -67 84 -75 9 -8 49 -44
90 -80 78 -68 97 -85 152 -135 18 -17 69 -62 113 -100 44 -39 82 -72 85 -75 3
-3 24 -22 47 -42 l42 -37 -106 -118 c-59 -65 -140 -155 -181 -200 -41 -46 -83
-93 -94 -105 -11 -13 -41 -46 -66 -73 -26 -28 -65 -71 -87 -95 -220 -249 -306
-337 -412 -421 -241 -192 -495 -303 -833 -365 -60 -11 -461 -14 -530 -3 -100
14 -109 16 -206 38 -221 50 -436 150 -634 296 -190 140 -408 384 -517 580
-103 183 -189 424 -208 580 -4 28 -8 57 -10 65 -23 88 -22 434 1 545 3 11 7
38 10 60 3 22 12 67 21 100 8 33 16 67 18 75 9 44 82 227 121 305 110 217 327
482 499 610 22 16 42 33 45 36 3 3 39 29 80 56 146 98 304 176 470 232 104 35
100 35 129 14z"/>
<path d="M1757 48934 c-1 -1 -31 -5 -67 -8 -68 -7 -117 -14 -160 -22 -14 -2
-39 -7 -56 -9 -17 -3 -43 -9 -58 -15 -14 -5 -26 -8 -26 -5 0 10 -240 -79 -332
-123 -313 -152 -596 -412 -797 -733 -41 -66 -141 -269 -141 -287 0 -5 -9 -29
-19 -53 -11 -24 -22 -55 -25 -69 -3 -14 -10 -41 -16 -60 -5 -19 -17 -71 -25
-115 -8 -44 -18 -93 -22 -110 -4 -16 -9 -3281 -10 -7255 -2 -7011 -1 -7228 17
-7335 35 -204 62 -305 119 -440 94 -219 217 -401 396 -581 112 -113 297 -264
323 -264 7 0 12 -4 12 -8 0 -12 206 -117 307 -156 86 -33 248 -80 317 -91 17
-3 42 -7 56 -10 31 -5 85 -12 168 -20 77 -8 6677 -9 6817 -1 106 6 217 14 275
21 19 2 60 7 90 10 30 3 66 8 80 10 14 2 45 7 70 10 92 12 331 55 341 60 3 2
21 7 40 10 19 3 70 15 114 26 44 11 91 22 105 25 102 21 556 177 690 236 25
11 61 27 80 35 371 160 764 386 1110 641 63 47 117 88 120 91 3 3 39 33 80 66
41 32 77 61 80 64 3 4 41 38 84 76 95 84 276 261 372 365 531 577 961 1322
1199 2080 29 92 107 390 119 453 32 174 56 309 62 350 2 15 6 44 8 65 7 44 16
132 21 187 2 22 6 69 9 105 25 271 21 775 -9 1020 -2 19 -7 60 -10 90 -4 30
-8 67 -11 81 -2 15 -6 47 -9 70 -3 24 -12 85 -21 134 -20 122 -21 126 -28 155
-3 14 -8 36 -10 50 -12 71 -80 333 -121 465 -177 567 -489 1169 -860 1655 -96
126 -84 112 -186 233 l-82 98 34 42 c19 23 41 51 49 61 8 10 26 33 41 50 41
50 150 203 226 316 307 461 536 952 702 1505 26 88 98 386 105 440 4 22 8 51
11 65 3 14 8 36 10 50 8 39 33 218 40 285 3 33 8 74 10 90 27 206 27 911 0
1067 -2 13 -7 46 -10 73 -14 130 -26 220 -36 268 -5 29 -12 68 -15 87 -3 19
-19 96 -35 170 -17 74 -32 144 -34 155 -5 19 -10 40 -57 200 -52 180 -149 445
-224 615 -14 30 -32 72 -42 94 -43 97 -181 362 -249 481 -61 105 -242 387
-276 430 -12 16 -89 118 -117 155 -133 180 -376 443 -595 646 -715 660 -1710
1149 -2665 1310 -14 3 -47 9 -75 14 -54 9 -132 20 -180 25 -17 2 -53 6 -80 9
-28 3 -77 8 -111 11 -33 3 -96 8 -140 11 -62 5 -6861 13 -6867 8z m6443 -3714
c298 -3 404 -17 595 -82 382 -129 747 -461 917 -836 91 -201 128 -371 133
-614 10 -451 -145 -830 -471 -1154 -195 -194 -423 -330 -689 -410 -75 -23 -93
-28 -155 -40 -14 -3 -32 -7 -40 -9 -8 -3 -33 -7 -55 -10 -22 -4 -51 -8 -65
-11 -14 -2 -72 -7 -130 -9 -203 -9 -276 -19 -430 -56 -200 -49 -365 -122 -551
-245 -137 -90 -335 -269 -420 -379 -13 -16 -32 -39 -42 -50 -32 -35 -144 -207
-184 -285 -100 -190 -170 -433 -188 -650 -17 -196 -1 -454 36 -595 6 -22 12
-47 14 -56 8 -39 47 -155 76 -226 62 -148 141 -282 247 -418 62 -80 267 -287
327 -331 49 -35 62 -46 79 -61 48 -42 334 -203 362 -203 3 0 20 -6 37 -14 109
-50 347 -102 503 -111 251 -14 283 -18 414 -41 513 -92 937 -365 1220 -788
106 -158 208 -397 234 -546 2 -14 7 -36 10 -50 34 -147 40 -455 11 -623 -3
-15 -10 -55 -16 -89 -24 -139 -150 -459 -205 -519 -8 -8 -14 -19 -14 -22 0
-26 -167 -232 -276 -340 -292 -290 -660 -462 -1054 -494 -47 -4 -1120 -7
-2385 -8 l-2300 0 -3 5184 c-1 3088 2 5187 7 5190 8 5 3811 5 4451 1z"/>
<path d="M17367 48934 c-1 -1 -43 -4 -94 -8 -82 -6 -148 -15 -223 -32 -14 -3
-38 -7 -55 -10 -64 -11 -275 -87 -372 -134 -361 -176 -685 -503 -869 -875 -89
-182 -147 -374 -171 -566 -11 -86 -10 -14433 0 -14534 5 -44 10 -82 12 -85 2
-3 6 -21 9 -40 26 -168 108 -386 216 -575 97 -172 335 -437 490 -545 19 -14
37 -27 40 -30 19 -21 154 -101 255 -150 132 -65 288 -120 407 -144 173 -35
256 -44 453 -46 453 -4 6578 -1 6640 4 39 3 111 8 160 11 50 4 104 8 120 9 76
8 308 40 365 51 14 3 39 7 55 10 402 65 917 233 1351 440 160 76 427 217 484
255 14 9 81 52 150 96 325 203 613 435 900 724 205 206 326 346 481 555 49 66
93 125 97 130 34 44 162 243 223 345 239 398 421 804 553 1232 25 80 47 157
50 170 2 12 16 68 30 123 21 86 65 305 80 400 27 179 42 310 51 455 4 52 8
120 11 150 5 67 5 517 -1 580 -2 25 -6 92 -10 149 -4 57 -8 114 -10 125 -5 31
-17 136 -20 176 -2 19 -8 62 -14 95 -6 33 -13 78 -16 100 -5 33 -30 167 -49
260 -17 85 -93 357 -134 480 -133 405 -350 857 -595 1240 -39 61 -74 112 -79
113 -4 2 -8 8 -8 12 0 14 -209 301 -240 330 -3 3 -32 39 -65 80 -32 41 -66 82
-75 90 -46 45 -46 43 26 137 38 48 71 90 74 93 13 11 142 193 217 305 206 309
394 670 530 1020 19 50 41 104 48 120 14 32 83 245 110 335 59 198 128 520
150 696 4 27 8 60 11 74 2 14 6 52 10 85 3 33 7 71 10 85 25 163 25 889 -1
1065 -2 17 -7 54 -10 83 -6 58 -33 254 -39 288 -3 12 -7 39 -10 60 -4 22 -11
55 -16 74 -5 19 -11 51 -14 71 -3 20 -8 42 -10 50 -3 8 -7 25 -10 39 -2 14 -9
45 -16 70 -7 25 -13 52 -15 60 -22 116 -171 556 -236 698 -16 34 -29 65 -29
68 0 6 -57 127 -133 284 -115 236 -276 503 -442 735 -56 77 -108 149 -117 160
-9 11 -53 65 -98 120 -600 734 -1460 1321 -2400 1638 -116 39 -292 92 -340
102 -8 2 -28 8 -45 15 -16 6 -31 11 -33 10 -1 -1 -15 1 -30 4 -15 3 -38 8 -52
11 -14 2 -45 9 -70 15 -79 18 -373 68 -440 74 -72 8 -127 14 -180 21 -117 16
-587 18 -3623 19 -1847 1 -3359 1 -3360 0z m6623 -3718 c41 -3 86 -8 100 -11
129 -22 168 -31 259 -61 326 -108 630 -347 830 -654 80 -123 170 -330 196
-450 2 -14 9 -45 15 -70 17 -82 25 -173 25 -310 0 -166 -8 -241 -40 -378 -24
-102 -32 -128 -60 -197 -7 -16 -19 -45 -26 -64 -12 -32 -83 -162 -111 -205
-111 -166 -266 -329 -433 -454 -35 -26 -201 -123 -260 -151 -125 -60 -343
-126 -478 -146 -27 -3 -59 -9 -70 -11 -12 -2 -69 -7 -127 -9 -124 -6 -213 -13
-255 -20 -16 -3 -56 -10 -88 -16 -141 -25 -361 -102 -486 -171 -345 -190 -642
-495 -811 -836 -46 -92 -106 -248 -116 -301 -3 -14 -7 -28 -9 -31 -6 -9 -33
-147 -40 -200 -3 -25 -8 -61 -10 -80 -6 -48 -7 -314 0 -375 25 -254 113 -528
233 -725 12 -19 25 -42 29 -50 4 -8 11 -19 15 -25 4 -5 35 -47 69 -93 125
-169 319 -354 490 -468 170 -113 403 -215 564 -248 17 -4 41 -9 55 -12 86 -18
213 -31 375 -39 61 -3 121 -7 135 -10 14 -2 54 -9 90 -15 113 -18 123 -20 249
-56 454 -131 818 -412 1062 -819 109 -182 188 -420 215 -650 10 -81 10 -313 1
-405 -20 -186 -80 -396 -161 -560 -57 -113 -59 -117 -144 -238 -92 -132 -178
-226 -306 -337 -32 -27 -64 -55 -71 -62 -30 -29 -220 -147 -295 -184 -164 -80
-347 -135 -535 -160 -67 -9 -685 -12 -2410 -14 -1276 0 -2326 1 -2332 3 -17 5
-19 10368 -3 10374 19 6 4594 0 4670 -6z"/>
<path d="M48139 25870 c-99 -18 -231 -119 -276 -210 -62 -125 -61 -267 2 -390
18 -35 314 -410 413 -525 10 -11 36 -42 57 -70 22 -27 45 -55 50 -61 6 -6 24
-28 40 -49 17 -21 82 -101 145 -179 63 -78 124 -153 135 -167 18 -23 423 -522
467 -574 61 -74 88 -108 89 -113 1 -4 2 -243 3 -532 2 -479 4 -530 20 -580 21
-63 71 -137 123 -183 203 -182 521 -111 646 143 l32 65 5 548 c3 368 8 550 16
555 5 4 52 59 103 122 51 63 108 133 126 155 18 22 95 117 171 210 76 94 144
177 151 185 6 8 65 80 130 160 65 80 192 235 282 345 89 110 177 218 196 240
259 312 275 340 281 485 6 163 -65 292 -206 377 -83 50 -229 62 -335 29 -99
-31 -149 -76 -332 -302 -180 -223 -318 -394 -336 -414 -12 -14 -69 -83 -126
-155 -58 -71 -129 -159 -159 -195 -64 -77 -63 -76 -172 -210 -46 -58 -87 -107
-90 -110 -3 -3 -28 -33 -55 -68 -26 -34 -52 -61 -56 -60 -3 2 -50 57 -104 123
-53 66 -104 129 -113 140 -9 11 -35 43 -57 70 -22 28 -42 52 -45 55 -3 3 -61
75 -130 160 -69 85 -132 164 -141 175 -23 27 -309 380 -442 545 -60 74 -123
148 -140 163 -36 32 -127 81 -172 91 -43 11 -154 14 -196 6z"/>
<path d="M14095 25860 c-92 -21 -192 -89 -244 -163 -64 -93 -61 -46 -60 -1186
0 -570 5 -1065 10 -1101 15 -109 18 -122 39 -205 63 -242 194 -472 368 -643
42 -41 92 -86 111 -100 20 -15 38 -29 41 -33 41 -47 310 -183 440 -222 478
-143 939 -72 1305 201 146 110 223 199 243 281 4 14 6 67 7 116 0 79 -4 97
-29 150 -36 72 -117 153 -189 188 -155 76 -325 45 -467 -83 -113 -102 -256
-148 -447 -144 -296 7 -537 204 -614 502 -18 69 -20 110 -20 407 0 182 0 344
0 362 l1 32 543 3 542 3 67 33 c79 39 155 117 196 201 24 50 27 67 27 156 0
78 -4 111 -20 145 -49 114 -132 195 -232 226 -53 17 -103 18 -590 19 l-533 0
-1 45 c-1 25 -1 131 0 235 0 105 -4 215 -9 245 -27 149 -141 283 -276 323 -52
15 -159 19 -209 7z"/>
<path d="M19126 25854 c-98 -19 -159 -41 -256 -90 -270 -139 -457 -379 -539
-689 -19 -74 -25 -179 -25 -492 -1 -201 -5 -313 -11 -314 -5 0 -19 -2 -30 -4
-11 -1 -40 -6 -65 -9 -86 -11 -105 -17 -175 -51 -80 -38 -121 -82 -163 -173
-50 -109 -26 -292 52 -395 62 -81 148 -120 299 -132 40 -4 77 -8 82 -9 7 -2
10 -209 10 -607 -1 -590 -1 -605 -22 -650 -47 -105 -134 -164 -254 -173 -113
-9 -185 -41 -258 -116 -77 -79 -112 -170 -105 -276 11 -172 125 -300 311 -349
57 -15 173 -21 223 -10 14 2 39 7 55 11 160 31 372 151 511 290 80 79 187 227
199 274 1 3 11 25 22 50 23 51 49 130 57 175 4 17 9 41 13 55 3 14 7 317 9
673 1 357 5 651 7 654 3 2 27 6 54 9 101 8 182 28 248 62 45 23 105 91 134
152 22 48 25 69 26 160 0 93 -3 111 -26 161 -64 136 -185 208 -372 222 -32 2
-60 7 -64 10 -9 9 -7 574 2 627 8 48 35 102 68 138 42 45 87 64 197 83 132 22
210 59 274 130 80 89 108 184 88 299 -26 151 -116 255 -262 300 -60 18 -229
21 -314 4z"/>
<path d="M39238 25850 c-117 -36 -215 -123 -255 -227 -17 -46 -18 -101 -18
-1093 0 -938 4 -1155 19 -1201 3 -8 7 -30 10 -49 18 -124 145 -430 212 -509
13 -16 24 -33 24 -39 0 -6 3 -12 8 -14 4 -1 25 -25 46 -52 196 -244 499 -425
831 -497 143 -31 343 -41 490 -26 157 17 230 36 385 100 206 86 444 267 506
387 26 51 28 64 28 165 0 96 -3 116 -23 155 -36 69 -70 109 -130 153 -96 71
-193 94 -305 75 -73 -13 -130 -43 -220 -114 -113 -90 -174 -118 -296 -138
-326 -52 -600 90 -731 380 -54 119 -58 155 -59 550 l0 363 542 3 543 3 55 26
c66 31 110 67 161 131 161 204 73 512 -175 605 -35 13 -119 16 -581 17 l-540
1 -2 30 c-1 17 -4 140 -5 275 l-3 245 -36 76 c-37 78 -93 143 -159 184 -84 53
-219 68 -322 35z"/>
<path d="M44090 25859 c-113 -13 -138 -18 -208 -39 -591 -176 -896 -864 -627
-1416 42 -87 139 -229 183 -268 l22 -19 -57 -56 c-122 -122 -230 -299 -276
-456 -16 -52 -31 -118 -45 -195 -13 -70 -7 -266 12 -361 76 -401 334 -713 699
-849 196 -73 461 -85 669 -30 243 63 402 167 577 375 62 74 118 135 124 135 7
0 35 -22 63 -48 64 -58 153 -137 264 -232 87 -74 200 -173 230 -200 84 -77
259 -99 374 -47 77 35 140 98 179 176 29 60 32 73 32 161 0 163 -23 195 -310
440 -88 74 -175 149 -194 166 -20 18 -61 54 -92 80 -31 27 -57 53 -58 57 -1 4
68 89 154 187 85 99 167 202 180 229 118 235 -42 509 -307 525 -63 4 -132 -10
-183 -37 -38 -19 -89 -68 -190 -181 -44 -50 -96 -108 -116 -130 -103 -116 -96
-110 -116 -95 -10 8 -20 16 -23 19 -3 3 -43 39 -90 80 -47 41 -87 77 -90 80
-3 3 -26 24 -52 47 l-46 42 42 38 c23 21 60 54 83 73 81 72 184 226 229 347
55 144 79 381 53 518 -5 28 -12 62 -14 76 -17 92 -124 349 -147 349 -4 0 -8 6
-8 13 0 35 -191 227 -289 291 -104 68 -216 117 -301 133 -14 2 -41 8 -60 12
-19 4 -62 9 -95 10 -33 1 -71 3 -85 4 -14 2 -54 -1 -90 -4z m211 -749 c151
-78 215 -251 145 -394 -65 -132 -217 -196 -359 -151 -110 34 -201 165 -199
283 3 123 92 241 207 275 64 18 155 12 206 -13z m-54 -1625 c86 -77 203 -181
259 -231 l102 -92 -67 -73 c-106 -119 -142 -150 -211 -182 -149 -68 -321 -31
-433 92 -175 195 -119 484 117 602 33 16 63 28 68 27 4 -2 78 -66 165 -143z"/>
<path d="M1400 25846 c-115 -31 -211 -109 -262 -214 l-33 -67 0 -1570 0 -1570
33 -67 c55 -113 151 -188 271 -213 62 -12 1502 -14 1581 -1 372 58 690 287
856 614 86 171 122 324 122 522 0 266 -85 505 -258 720 l-21 26 57 84 c72 108
140 251 159 335 2 6 7 28 13 50 44 166 32 426 -28 603 -103 306 -336 553 -643
682 -70 29 -168 54 -272 69 -97 14 -1521 11 -1575 -3z m1548 -789 c68 -26 140
-90 177 -158 40 -74 46 -180 15 -261 -48 -129 -167 -211 -325 -224 -180 -15
-327 -136 -362 -298 -26 -122 9 -253 90 -342 80 -88 169 -129 290 -135 147 -8
264 -85 329 -218 28 -56 32 -73 31 -145 0 -47 -7 -99 -17 -124 -36 -98 -123
-184 -225 -223 -54 -21 -70 -21 -561 -22 l-505 0 0 1079 c-1 605 3 1082 8
1085 5 4 232 6 505 7 479 0 499 -1 550 -21z"/>
<path d="M26494 25846 c-102 -25 -211 -112 -256 -204 -12 -26 -23 -51 -24 -57
-2 -5 -6 -30 -11 -55 -5 -25 -8 -724 -8 -1555 1 -1180 4 -1520 14 -1555 34
-120 134 -226 254 -266 48 -17 113 -18 787 -19 843 0 851 0 1025 56 348 111
626 389 738 739 70 217 68 486 -4 705 -31 92 -105 232 -165 312 -30 40 -54 77
-54 83 0 5 16 31 35 56 209 274 274 680 161 1011 -75 220 -221 420 -401 548
-107 77 -290 162 -386 180 -35 7 -70 14 -99 22 -14 3 -369 7 -790 9 -582 2
-777 -1 -816 -10z m1539 -788 c228 -70 298 -364 127 -536 -67 -67 -140 -99
-250 -108 -82 -7 -90 -10 -150 -38 -96 -46 -166 -126 -200 -226 -18 -53 -21
-80 -17 -145 6 -104 37 -173 109 -246 78 -78 171 -118 275 -119 60 0 160 -35
215 -76 208 -150 194 -462 -26 -602 -22 -13 -44 -25 -50 -26 -6 -1 -16 -4 -21
-8 -28 -18 -129 -21 -565 -20 -261 0 -481 1 -487 1 -10 1 -13 225 -13 1085 l0
1084 493 0 c472 1 495 0 560 -20z"/>
<path d="M23450 25832 c-72 -27 -107 -49 -156 -100 -56 -57 -99 -140 -110
-207 -12 -82 -8 -2461 4 -2525 19 -92 21 -102 37 -149 8 -25 15 -49 15 -54 0
-18 83 -168 129 -235 152 -214 411 -382 652 -422 58 -9 270 -8 307 3 43 12
121 60 161 100 117 116 146 275 76 420 -61 127 -181 203 -334 213 -95 6 -167
39 -215 97 -70 85 -66 3 -66 1327 0 768 -4 1211 -11 1239 -26 116 -113 227
-216 277 -71 35 -201 42 -273 16z"/>
<path d="M36152 25839 c-120 -22 -221 -113 -277 -249 -18 -43 -18 -110 -19
-1575 -1 -1172 1 -1541 11 -1578 36 -143 145 -264 268 -300 182 -52 384 52
458 235 21 52 21 67 23 633 1 406 5 597 13 637 28 132 104 270 202 365 169
164 373 216 624 159 35 -8 118 -48 175 -84 138 -88 255 -270 286 -446 4 -22 8
-301 9 -620 1 -417 5 -589 13 -609 40 -94 59 -125 112 -177 71 -71 144 -102
240 -104 85 -1 120 7 186 39 104 51 180 149 204 261 12 57 9 1309 -3 1354 -4
14 -12 51 -18 83 -37 207 -177 466 -349 650 -205 219 -537 390 -818 423 -31 3
-66 8 -77 10 -30 7 -243 6 -295 -1 -133 -16 -164 -22 -238 -39 -65 -15 -183
-61 -227 -88 -16 -10 -32 -18 -35 -18 -3 0 -4 154 -4 342 1 303 -1 352 -17
416 -50 199 -241 319 -447 281z"/>
<path d="M54573 25831 c-117 -41 -197 -122 -245 -248 l-22 -58 0 -1215 c1
-668 2 -1233 4 -1255 7 -101 69 -302 115 -380 133 -221 264 -346 471 -450 142
-71 231 -90 419 -90 120 0 135 2 186 26 144 68 234 208 228 356 -4 105 -46
192 -123 260 -68 60 -133 88 -226 99 -102 11 -124 15 -160 34 -52 26 -106 92
-126 154 -16 46 -17 155 -19 1261 -1 1071 -3 1215 -17 1250 -46 118 -110 193
-205 240 -76 37 -200 45 -280 16z"/>
<path d="M56263 25836 c-134 -44 -238 -157 -273 -297 -12 -48 -10 -2516 2
-2554 3 -11 11 -41 17 -67 76 -332 352 -632 685 -743 103 -35 145 -40 301 -40
122 1 134 2 187 29 133 65 216 186 224 324 10 197 -146 369 -351 388 -133 11
-194 40 -247 113 -54 77 -52 23 -53 1326 l-2 1210 -21 55 c-12 31 -35 77 -51
102 -31 49 -135 138 -161 138 -9 0 -21 5 -27 11 -18 18 -181 21 -230 5z"/>
<path d="M16872 25817 c-160 -53 -265 -205 -258 -374 7 -163 91 -282 241 -339
36 -14 76 -19 145 -19 83 0 102 3 150 27 129 64 209 188 215 333 10 269 -240
457 -493 372z"/>
<path d="M31826 25823 c-119 -36 -219 -131 -256 -243 -23 -69 -18 -202 10
-275 73 -189 330 -283 518 -188 72 36 154 127 183 200 17 44 22 79 22 144 1
75 -3 94 -30 152 -42 88 -101 150 -181 189 -55 27 -79 33 -142 34 -42 1 -96
-4 -124 -13z"/>
<path d="M68747 24994 c-1 -1 -43 -5 -94 -8 -50 -4 -102 -9 -115 -11 -13 -2
-44 -6 -69 -9 l-46 -7 0 -820 c0 -451 3 -821 6 -823 22 -13 544 -24 596 -13
11 3 43 8 70 11 253 34 460 138 590 296 36 43 138 221 134 233 -1 1 4 22 11
47 38 136 50 306 30 440 -55 384 -322 613 -765 656 -59 6 -343 12 -348 8z
m363 -189 c267 -48 433 -190 497 -426 19 -69 25 -274 10 -361 -35 -215 -160
-386 -342 -469 -122 -55 -219 -72 -415 -73 -96 0 -182 3 -192 6 -15 6 -16 60
-16 662 l0 655 52 9 c78 14 322 12 406 -3z"/>
<path d="M66160 24982 l-45 -3 2 -827 c1 -455 2 -830 2 -834 1 -5 222 -8 491
-8 l490 0 0 93 0 92 -367 -1 c-203 0 -372 1 -378 3 -7 2 -9 257 -8 743 l2 740
-22 1 c-12 0 -44 1 -72 2 -27 1 -70 1 -95 -1z"/>
<path d="M66930 24975 c-4 -5 -7 -47 -8 -92 l0 -83 36 -1 c21 0 141 0 268 0
l231 -1 0 -741 0 -742 116 -3 117 -3 2 743 3 743 220 2 c121 1 241 2 267 2
l46 1 1 90 1 90 -27 0 c-397 6 -1266 3 -1273 -5z"/>
<path d="M5600 24959 c-231 -18 -436 -90 -655 -231 -125 -80 -263 -210 -373
-353 -105 -135 -234 -419 -256 -560 -3 -22 -10 -60 -16 -85 -10 -48 -6 -342 5
-400 88 -457 364 -836 765 -1047 201 -105 371 -147 595 -147 282 1 502 49 673
146 155 89 221 182 228 321 4 94 -11 157 -57 229 -79 123 -231 195 -370 176
-31 -4 -94 -23 -140 -43 -46 -19 -111 -43 -144 -51 -72 -19 -213 -21 -287 -4
-104 24 -222 98 -303 189 -32 36 -85 112 -85 122 0 3 363 6 808 7 444 0 821 2
837 5 140 21 256 110 286 220 41 150 -17 462 -128 680 -29 57 -108 190 -128
216 -184 228 -316 343 -525 453 -172 91 -328 139 -495 153 -106 10 -148 10
-235 4z m315 -793 c38 -15 91 -40 117 -57 52 -34 140 -128 177 -189 l23 -40
-58 0 c-291 -3 -987 0 -991 4 -3 2 11 29 31 58 128 189 277 262 516 254 94 -3
128 -9 185 -30z"/>
<path d="M8797 24964 c-1 -1 -47 -4 -102 -7 -640 -34 -1191 -551 -1292 -1214
-15 -94 -8 -363 11 -450 78 -366 264 -658 563 -884 202 -153 422 -240 673
-266 112 -11 320 -5 405 12 44 9 89 18 100 19 45 7 232 78 294 112 62 34 66
35 78 17 51 -70 139 -136 205 -154 140 -37 279 0 383 105 112 112 111 109 110
821 -1 578 -4 634 -31 770 -26 134 -115 346 -199 476 -172 267 -433 472 -724
569 -52 18 -103 34 -113 36 -45 10 -57 12 -123 23 -59 9 -232 20 -238 15z
m168 -786 c116 -32 252 -116 325 -202 68 -81 128 -190 146 -266 4 -19 9 -42
11 -50 11 -44 9 -184 -4 -245 -15 -73 -75 -208 -115 -260 -38 -48 -104 -111
-153 -145 -44 -30 -144 -79 -175 -85 -8 -2 -35 -8 -60 -15 -63 -17 -194 -15
-268 4 -266 68 -481 306 -508 563 -10 89 -10 96 5 177 44 250 239 461 485 526
91 25 217 24 311 -2z"/>
<path d="M10858 24951 c-75 -24 -118 -52 -172 -112 -103 -115 -102 -106 -101
-839 1 -338 5 -635 9 -660 17 -101 26 -140 55 -231 101 -315 342 -612 641
-790 124 -73 308 -144 425 -163 17 -3 46 -8 65 -11 55 -11 277 -13 366 -4 230
23 453 101 637 223 346 229 579 600 633 1006 13 96 12 1239 -1 1295 -45 197
-256 336 -447 296 -139 -30 -250 -130 -296 -266 -20 -57 -20 -85 -21 -645 0
-322 -3 -603 -6 -625 -28 -190 -159 -365 -336 -453 -211 -104 -423 -99 -626
13 -79 44 -196 157 -235 228 -30 53 -73 157 -84 202 -4 17 -8 289 -10 605 -2
316 -5 597 -8 624 -11 109 -103 229 -221 287 -81 40 -181 47 -267 20z"/>
<path d="M20260 24956 c-19 -6 -39 -13 -45 -15 -74 -23 -170 -113 -213 -200
l-27 -56 -3 -630 c-2 -396 1 -658 7 -705 10 -71 13 -88 27 -142 3 -13 7 -33
10 -46 2 -13 16 -53 30 -90 181 -482 597 -834 1089 -923 75 -13 335 -17 425
-6 327 40 631 193 861 435 149 157 256 336 323 544 63 195 65 229 63 928 l-2
625 -33 67 c-39 79 -121 159 -202 197 -46 21 -70 25 -145 25 -83 1 -97 -2
-158 -32 -97 -48 -178 -138 -212 -237 -15 -45 -17 -113 -19 -660 -2 -443 -6
-624 -15 -660 -24 -98 -92 -217 -165 -290 -70 -70 -196 -140 -303 -169 -108
-29 -282 -22 -373 16 -180 75 -304 187 -378 341 -62 128 -64 148 -66 800 l-2
592 -23 59 c-31 78 -127 176 -207 212 -69 31 -187 40 -244 20z"/>
<path d="M33954 24959 c-50 -4 -107 -10 -125 -15 -19 -4 -38 -9 -44 -10 -80
-16 -210 -61 -300 -104 -434 -207 -751 -627 -823 -1090 -9 -61 -9 -341 1 -411
43 -315 174 -585 385 -796 126 -126 282 -229 437 -288 39 -15 79 -31 90 -36
22 -9 121 -35 170 -43 17 -3 41 -8 55 -11 83 -18 310 -24 465 -12 124 9 281
51 390 103 73 35 79 30 73 -69 -9 -133 -78 -266 -161 -309 -40 -20 -57 -22
-297 -23 -295 -2 -359 -7 -485 -40 -145 -38 -262 -88 -375 -159 -75 -48 -213
-194 -246 -261 -26 -54 -29 -70 -29 -155 0 -81 4 -103 26 -150 32 -67 93 -138
155 -179 109 -72 268 -81 385 -23 35 17 80 46 100 65 73 69 144 108 226 123
15 3 150 7 298 8 254 3 276 5 369 30 383 101 648 377 753 785 20 81 24 118 23
241 0 80 -2 159 -4 175 -2 17 -8 62 -12 100 -4 39 -8 72 -9 75 -1 3 -7 32 -14
65 -18 81 -56 185 -93 252 -30 55 -30 56 -13 92 64 131 116 301 130 421 4 30
9 66 11 80 2 14 4 82 4 151 1 327 -88 600 -279 859 -233 317 -635 537 -1016
556 -55 3 -107 6 -115 7 -8 2 -56 0 -106 -4z m264 -780 c349 -93 565 -438 487
-776 -14 -62 -62 -179 -85 -206 -5 -6 -27 -35 -49 -63 -114 -149 -285 -234
-481 -239 -150 -5 -274 32 -397 117 -128 87 -243 262 -270 405 -13 76 -8 236
11 293 73 224 263 410 481 471 84 23 213 23 303 -2z"/>
<path d="M52517 24964 c-1 -1 -36 -5 -77 -8 -220 -19 -488 -128 -692 -282
-150 -112 -316 -306 -407 -475 -38 -70 -98 -206 -106 -239 -2 -8 -9 -31 -15
-50 -33 -104 -49 -237 -46 -390 5 -261 65 -468 205 -700 25 -41 48 -79 53 -85
140 -179 238 -275 383 -372 178 -119 390 -201 565 -220 134 -15 417 -2 500 22
8 2 31 7 50 10 42 7 141 35 155 44 6 3 12 6 15 6 19 2 113 52 170 90 116 77
170 166 176 290 10 206 -132 375 -337 402 -82 11 -140 -1 -272 -56 -108 -45
-155 -54 -269 -54 -146 1 -286 62 -392 171 -52 54 -116 138 -116 153 0 3 363
6 808 6 444 1 826 4 849 7 135 19 256 125 279 241 16 81 3 249 -27 370 -103
409 -402 779 -782 968 -214 107 -367 145 -600 150 -38 1 -69 1 -70 1z m278
-798 c39 -15 93 -42 122 -61 51 -34 139 -131 176 -194 l18 -31 -33 -1 c-165
-3 -1011 0 -1015 4 -9 9 72 120 128 174 103 101 228 143 414 138 101 -2 131
-7 190 -29z"/>
<path d="M58849 24966 c-2 -2 -33 -7 -69 -10 -142 -15 -343 -76 -485 -149
-281 -143 -489 -350 -627 -622 -40 -79 -86 -192 -94 -229 -2 -10 -10 -42 -18
-70 -8 -28 -17 -73 -21 -101 -3 -27 -9 -66 -12 -85 -12 -77 -4 -305 13 -393 2
-12 7 -38 10 -57 16 -93 61 -223 114 -330 52 -103 73 -139 130 -215 224 -299
542 -490 915 -550 85 -13 350 -14 435 0 607 95 1083 559 1186 1155 23 135 23
369 -1 489 -50 258 -167 497 -335 685 -111 123 -218 213 -345 289 -124 73
-344 158 -449 172 -27 3 -54 8 -58 11 -10 6 -283 15 -289 10z m226 -785 c86
-21 121 -36 200 -84 53 -33 144 -119 186 -177 62 -85 119 -248 122 -348 6
-243 -128 -481 -337 -596 -304 -169 -669 -74 -861 224 -77 121 -106 220 -105
364 0 43 2 81 4 85 2 3 7 22 10 43 14 88 82 217 158 299 161 175 393 245 623
190z"/>
<path d="M60984 24950 c-32 -8 -77 -25 -99 -37 -56 -30 -131 -113 -163 -181
l-27 -57 -1 -802 c-1 -441 2 -821 6 -845 5 -24 11 -59 14 -78 9 -60 43 -156
85 -241 135 -271 410 -485 706 -550 176 -38 395 -27 565 27 71 23 200 90 258
134 l53 40 75 -52 c254 -172 606 -220 901 -122 275 91 503 287 621 532 29 59
63 150 68 181 2 7 8 36 16 65 10 40 13 232 13 886 l0 835 -22 47 c-12 26 -34
64 -49 83 -35 46 -146 118 -206 135 -71 19 -201 9 -263 -20 -68 -33 -159 -126
-193 -197 l-27 -58 -5 -795 -5 -795 -28 -47 c-90 -154 -312 -180 -440 -51 -65
64 -67 80 -67 522 0 468 -3 484 -88 589 -174 215 -530 173 -651 -78 l-26 -55
-1 -400 c-1 -220 -5 -420 -9 -445 -8 -49 -44 -112 -84 -148 -103 -94 -277 -88
-370 13 -81 88 -75 24 -81 910 -5 788 -5 790 -27 838 -81 174 -267 265 -449
217z"/>
<path d="M30748 24956 c-1 -2 -34 -6 -72 -10 -37 -3 -89 -11 -115 -17 -25 -6
-56 -13 -69 -15 -110 -21 -347 -126 -463 -205 -65 -44 -74 -51 -148 -113 -223
-188 -382 -457 -453 -767 -21 -90 -22 -120 -24 -709 -1 -338 2 -642 7 -674 26
-178 163 -303 344 -314 166 -9 289 50 363 177 51 87 52 101 52 735 1 498 3
600 16 646 8 30 16 60 18 67 1 6 20 47 41 90 29 58 61 99 120 158 121 121 252
179 425 190 106 6 132 11 197 42 90 43 180 144 199 223 4 19 9 42 11 50 2 8 4
38 4 66 0 160 -131 329 -286 369 -31 8 -160 16 -167 11z"/>
<path d="M16930 24938 c-115 -20 -237 -115 -286 -221 l-29 -62 -1 -1108 -1
-1108 23 -66 c55 -157 193 -256 354 -254 186 2 337 123 369 296 5 29 9 500 9
1117 0 1007 -1 1070 -18 1128 -62 204 -226 313 -420 278z"/>
<path d="M31872 24939 c-120 -23 -239 -114 -288 -222 l-29 -62 -3 -1101 c-2
-982 0 -1106 14 -1154 30 -100 81 -173 153 -220 226 -144 532 -20 580 236 6
28 9 502 9 1113 0 975 -2 1070 -17 1126 -57 203 -229 320 -419 284z"/>
</g>
</svg>
